<?xml version="1.0" encoding="UTF-8"?>
<svg xmlns="http://www.w3.org/2000/svg" width="25" height="25" viewBox="0 0 25 25" fill="none"> <path d="M3.75501 1.08576C2.97395 0.304728 1.70762 0.304748 0.926584 1.08581C0.145548 1.86687 0.145568 3.1332 0.926629 3.91424L3.75501 1.08576ZM22.841 24.9995C23.9456 24.9995 24.841 24.1041 24.841 22.9995L24.8407 4.99949C24.8407 3.89492 23.9452 2.99951 22.8407 2.99952C21.7361 2.99954 20.8407 3.89499 20.8407 4.99956L20.841 20.9996L4.84097 20.9998C3.7364 20.9998 2.84098 21.8953 2.841 22.9998C2.84102 24.1044 3.73646 24.9998 4.84103 24.9998L22.841 24.9995ZM0.926629 3.91424L21.4268 24.4138L24.2552 21.5853L3.75501 1.08576L0.926629 3.91424Z" fill="#F8CE55"/> <script xmlns=""/></svg>